<?xml version="1.0" encoding="UTF-8" ?>
<!DOCTYPE svg PUBLIC "-//W3C//DTD SVG 1.1//EN" "http://www.w3.org/Graphics/SVG/1.1/DTD/svg11.dtd">
<svg width="84pt" height="60pt" viewBox="0 0 84 60" version="1.1" xmlns="http://www.w3.org/2000/svg">
<g id="#192a3bff">
<path fill="#192a3b" opacity="1.00" d=" M 7.95 1.78 C 9.60 1.40 11.31 1.39 13.00 1.36 C 30.99 1.39 48.99 1.38 66.98 1.36 C 70.00 1.40 73.07 1.14 76.04 1.80 C 79.97 3.66 83.54 7.48 83.44 12.07 C 83.46 24.06 83.45 36.05 83.44 48.04 C 83.76 53.65 78.72 59.08 73.00 58.61 C 52.33 58.62 31.67 58.62 11.01 58.61 C 5.28 59.10 0.19 53.66 0.54 48.03 C 0.53 36.36 0.53 24.69 0.54 13.02 C 0.30 8.16 3.76 3.84 7.95 1.78 M 4.11 13.60 C 29.36 13.62 54.61 13.62 79.86 13.60 C 80.37 9.48 77.86 6.10 74.14 4.64 C 53.38 4.72 32.62 4.61 11.86 4.69 C 7.16 4.58 3.63 9.06 4.11 13.60 M 4.30 49.05 C 4.00 52.60 7.62 55.34 10.93 55.30 C 31.28 55.37 51.63 55.29 71.98 55.34 C 75.58 55.72 79.96 53.07 79.67 49.09 C 79.74 40.29 79.78 31.48 79.62 22.68 C 54.53 22.73 29.45 22.73 4.36 22.68 C 4.20 31.47 4.26 40.26 4.30 49.05 Z" />
</g>
</svg>
