<?xml version="1.0" encoding="UTF-8" ?>
<!DOCTYPE svg PUBLIC "-//W3C//DTD SVG 1.1//EN" "http://www.w3.org/Graphics/SVG/1.1/DTD/svg11.dtd">
<svg width="63pt" height="73pt" viewBox="0 0 63 73" version="1.1" xmlns="http://www.w3.org/2000/svg">
<g id="#192a3bff">
<path fill="#192a3b" opacity="1.00" d=" M 11.53 0.00 L 14.50 0.00 C 17.60 0.52 20.84 1.56 22.88 4.08 C 26.57 8.41 26.67 14.62 26.03 19.97 C 24.80 22.85 20.91 21.67 18.85 20.35 C 18.96 16.58 19.57 12.56 18.04 9.00 C 15.96 4.64 8.47 5.58 7.61 10.37 C 6.79 16.50 7.51 22.71 7.22 28.88 C 11.88 26.86 17.87 26.33 21.80 30.15 C 26.58 34.75 25.97 41.93 26.01 48.00 C 25.76 54.00 27.41 60.58 24.20 66.07 C 20.01 73.61 7.81 74.04 2.75 67.21 C 1.00 65.00 0.38 62.16 0.00 59.43 L 0.00 12.54 C 0.22 6.19 5.06 0.49 11.53 0.00 M 7.30 35.48 C 7.36 43.98 7.02 52.50 7.45 60.98 C 7.79 65.85 15.01 67.60 17.67 63.61 C 19.77 60.14 18.80 55.84 19.00 52.00 C 18.74 47.06 19.72 41.88 18.09 37.11 C 16.14 32.80 10.76 33.81 7.30 35.48 Z" />
<path fill="#192a3b" opacity="1.00" d=" M 48.51 0.00 L 51.42 0.00 C 57.92 0.44 62.83 6.18 63.00 12.57 L 63.00 59.58 C 62.65 62.31 62.07 65.14 60.39 67.39 C 55.59 73.86 44.40 73.98 39.61 67.42 C 37.34 64.46 36.98 60.60 36.98 57.00 C 37.00 43.34 37.03 29.68 36.97 16.02 C 36.97 11.93 37.26 7.41 40.13 4.21 C 42.18 1.66 45.36 0.45 48.51 0.00 M 47.34 6.53 C 44.67 7.94 44.20 11.25 44.26 13.98 C 44.29 29.01 44.22 44.04 44.29 59.07 C 44.04 62.39 46.26 66.20 49.96 66.03 C 53.71 66.31 56.28 62.53 55.97 59.06 C 56.07 44.37 55.94 29.67 56.02 14.97 C 55.94 12.74 56.08 10.27 54.78 8.33 C 53.26 5.92 49.80 5.38 47.34 6.53 Z" />
</g>
</svg>
