<?xml version="1.0" encoding="UTF-8" ?>
<!DOCTYPE svg PUBLIC "-//W3C//DTD SVG 1.1//EN" "http://www.w3.org/Graphics/SVG/1.1/DTD/svg11.dtd">
<svg width="37pt" height="37pt" viewBox="0 0 37 37" version="1.1" xmlns="http://www.w3.org/2000/svg">
<g id="#000000ff">
<path fill="#000000" opacity="1.00" d=" M 12.38 1.65 C 17.84 -0.48 24.26 0.54 28.96 3.98 C 34.80 8.16 37.88 16.04 35.85 23.02 C 33.79 31.18 25.46 37.21 17.04 36.40 C 8.91 35.78 1.80 29.06 0.71 20.99 C -0.59 12.84 4.67 4.40 12.38 1.65 M 15.42 4.50 C 8.87 5.88 3.76 12.29 4.19 19.02 C 4.24 26.66 11.40 33.27 19.01 32.80 C 26.98 32.73 33.79 24.99 32.76 17.06 C 32.15 8.83 23.44 2.49 15.42 4.50 Z" />
<path fill="#000000" opacity="1.00" d=" M 16.67 9.53 C 17.58 9.53 19.41 9.53 20.32 9.53 C 20.30 13.12 20.30 16.71 20.32 20.31 C 19.41 20.31 17.58 20.30 16.67 20.30 C 16.70 16.71 16.69 13.12 16.67 9.53 Z" />
<path fill="#000000" opacity="1.00" d=" M 16.69 23.85 C 17.59 23.85 19.40 23.85 20.30 23.85 C 20.31 24.75 20.33 26.56 20.34 27.46 C 19.42 27.46 17.58 27.47 16.65 27.47 C 16.66 26.56 16.68 24.75 16.69 23.85 Z" />
</g>
</svg>
