<?xml version="1.0" encoding="UTF-8" ?>
<!DOCTYPE svg PUBLIC "-//W3C//DTD SVG 1.1//EN" "http://www.w3.org/Graphics/SVG/1.1/DTD/svg11.dtd">
<svg width="94pt" height="76pt" viewBox="0 0 94 76" version="1.1" xmlns="http://www.w3.org/2000/svg">
<g id="#192a3bff">
<path fill="#192a3b" opacity="1.00" d=" M 0.21 0.00 L 21.35 0.00 C 22.37 3.46 23.16 6.98 24.00 10.48 C 47.21 10.59 70.41 10.49 93.61 10.53 C 89.54 23.56 85.48 36.60 81.37 49.61 C 65.50 49.66 49.63 49.60 33.77 49.65 C 34.01 50.43 34.50 52.00 34.74 52.79 C 39.36 53.00 43.43 55.48 46.01 59.28 C 53.73 59.35 61.45 59.31 69.18 59.30 C 71.43 56.45 74.25 53.61 78.06 53.18 C 84.84 52.07 91.38 58.26 91.26 64.99 C 90.88 70.35 86.55 75.06 81.27 76.00 L 78.12 76.00 C 72.44 75.15 68.00 69.91 68.01 64.19 C 61.16 64.10 54.30 64.17 47.45 64.14 C 47.02 69.75 43.01 75.00 37.32 76.00 L 34.10 76.00 C 28.49 75.12 23.66 69.82 24.18 64.01 C 24.10 59.92 27.04 56.73 30.03 54.36 C 26.10 37.68 21.82 21.08 17.52 4.49 C 11.77 4.55 6.03 4.50 0.28 4.54 C 0.25 3.03 0.23 1.51 0.21 0.00 M 25.16 15.34 C 27.79 25.11 30.20 34.94 32.63 44.76 C 47.73 44.79 62.83 44.83 77.93 44.74 C 80.99 34.92 84.05 25.10 87.20 15.32 C 66.52 15.27 45.84 15.22 25.16 15.34 M 32.35 58.48 C 27.32 60.80 27.71 69.40 33.13 71.01 C 37.66 72.89 43.25 68.96 42.46 63.96 C 42.41 59.06 36.46 56.20 32.35 58.48 M 76.39 58.47 C 71.65 60.62 71.51 68.43 76.28 70.65 C 80.43 73.00 86.63 70.02 86.43 64.98 C 87.20 59.68 80.87 55.95 76.39 58.47 Z" />
</g>
</svg>
