<?xml version="1.0" encoding="UTF-8" ?>
<!DOCTYPE svg PUBLIC "-//W3C//DTD SVG 1.1//EN" "http://www.w3.org/Graphics/SVG/1.1/DTD/svg11.dtd">
<svg width="83pt" height="73pt" viewBox="0 0 83 73" version="1.1" xmlns="http://www.w3.org/2000/svg">
<g id="#192a3afd">
<path fill="#192a3a" opacity="1.00" d=" M 40.05 5.44 C 47.14 5.80 52.92 0.36 59.96 0.37 C 60.53 2.06 61.13 3.74 61.73 5.41 C 65.57 5.62 70.42 4.30 73.24 7.72 C 75.40 9.88 75.21 13.15 75.59 15.95 C 79.47 16.49 82.87 19.92 82.64 23.96 C 82.63 38.01 82.70 52.07 82.58 66.12 C 80.72 68.75 78.64 71.29 75.86 73.00 L 7.21 73.00 C 4.16 71.30 2.13 68.42 0.00 65.77 L 0.00 12.59 C 1.04 9.02 3.78 5.15 7.95 5.42 C 18.65 5.35 29.35 5.41 40.05 5.44 M 26.07 15.38 C 37.92 16.07 49.82 15.62 61.68 15.69 C 60.15 11.88 59.05 7.90 57.32 4.17 C 46.88 7.82 36.53 11.76 26.07 15.38 M 4.72 9.88 C 4.52 11.80 3.75 14.26 5.82 15.47 C 9.11 15.91 12.51 15.95 15.79 15.42 C 21.60 13.58 27.13 10.70 33.24 9.91 C 28.34 8.11 23.08 9.00 17.98 8.82 C 13.55 8.97 8.95 8.17 4.72 9.88 M 63.21 8.77 C 63.65 11.21 64.46 13.56 65.56 15.78 C 67.61 15.74 69.66 15.70 71.71 15.66 C 71.67 14.10 71.54 12.56 71.33 11.02 C 69.70 8.11 65.94 8.94 63.21 8.77 M 4.36 19.24 C 4.40 34.18 4.31 49.12 4.39 64.06 C 4.22 67.49 7.91 69.49 10.96 69.27 C 31.31 69.30 51.65 69.30 72.00 69.27 C 74.80 69.44 78.07 67.91 78.53 64.89 C 78.82 60.42 78.54 55.94 78.66 51.46 C 74.86 51.12 70.41 52.54 67.19 49.89 C 63.82 47.61 63.53 42.26 66.45 39.50 C 69.48 36.03 74.54 37.71 78.54 37.38 C 78.71 32.09 78.67 26.78 78.56 21.49 C 77.81 20.84 77.07 20.19 76.33 19.55 C 54.21 19.57 32.10 19.54 9.98 19.56 C 8.10 19.55 6.23 19.41 4.36 19.24 M 72.53 48.13 C 72.06 46.30 71.54 44.46 71.49 42.55 C 72.75 42.58 74.00 42.62 75.26 42.67 C 75.29 43.69 75.31 44.72 75.34 45.74 L 73.20 45.80 C 74.57 47.49 76.53 47.98 78.65 47.77 C 78.65 45.43 78.64 43.08 78.61 40.74 C 75.99 40.73 73.36 40.71 70.74 40.61 C 66.71 42.15 67.65 48.68 72.53 48.13 Z" />
</g>
</svg>
