<?xml version="1.0" encoding="UTF-8" ?>
<!DOCTYPE svg PUBLIC "-//W3C//DTD SVG 1.1//EN" "http://www.w3.org/Graphics/SVG/1.1/DTD/svg11.dtd">
<svg width="52pt" height="70pt" viewBox="0 0 52 70" version="1.1" xmlns="http://www.w3.org/2000/svg">
<g id="#ffffffff">
<path fill="#ffffff" opacity="1.00" d=" M 25.46 0.00 L 26.44 0.00 C 39.24 -0.06 51.07 10.53 52.00 23.37 L 52.00 28.44 C 49.74 38.38 41.98 45.80 34.79 52.51 C 33.69 52.51 32.59 52.52 31.49 52.54 C 31.43 54.79 33.32 55.85 34.61 57.33 C 34.91 60.55 34.80 63.79 34.72 67.02 C 34.88 68.28 33.78 69.11 33.10 70.00 L 18.88 70.00 C 18.16 69.11 17.11 68.24 17.28 66.95 C 17.21 63.73 17.08 60.48 17.40 57.27 C 18.75 55.87 20.50 54.74 20.53 52.56 C 19.43 52.53 18.33 52.52 17.23 52.51 C 10.02 45.83 2.33 38.42 0.00 28.52 L 0.00 23.30 C 0.96 10.52 12.71 -0.01 25.46 0.00 M 13.06 10.10 C 8.15 13.93 5.65 20.13 5.44 26.24 C 19.15 26.26 32.85 26.27 46.55 26.24 C 46.41 20.33 44.16 14.30 39.50 10.48 C 32.28 4.06 20.46 3.88 13.06 10.10 M 5.84 29.46 C 7.08 31.52 7.71 35.45 10.90 35.06 C 21.35 34.99 31.80 34.96 42.25 35.00 C 44.58 34.30 45.01 31.26 46.13 29.42 C 32.72 29.09 19.25 29.01 5.84 29.46 M 11.01 37.80 C 13.77 40.85 16.67 43.77 19.60 46.66 C 23.87 46.62 28.15 46.65 32.42 46.64 C 35.32 43.74 38.23 40.85 40.98 37.81 C 30.99 37.87 21.00 37.88 11.01 37.80 M 22.80 52.56 C 22.91 53.26 23.14 54.67 23.26 55.37 C 25.09 55.50 26.94 55.51 28.77 55.34 C 28.87 54.65 29.08 53.26 29.18 52.56 C 27.05 52.51 24.93 52.51 22.80 52.56 M 20.14 58.36 C 20.21 61.29 20.19 64.23 20.23 67.16 C 24.07 67.13 27.92 67.13 31.76 67.16 C 31.80 64.22 31.80 61.28 31.82 58.34 C 27.93 58.36 24.04 58.34 20.14 58.36 Z" />
</g>
</svg>
