<?xml version="1.0" encoding="UTF-8" ?>
<!DOCTYPE svg PUBLIC "-//W3C//DTD SVG 1.1//EN" "http://www.w3.org/Graphics/SVG/1.1/DTD/svg11.dtd">
<svg width="60pt" height="60pt" viewBox="0 0 60 60" version="1.1" xmlns="http://www.w3.org/2000/svg">
<g id="#ffffffff">
<path fill="#ffffff" opacity="1.00" d=" M 46.04 4.99 C 50.55 3.00 55.12 1.08 59.95 0.01 C 58.95 4.84 56.95 9.36 55.04 13.88 C 50.16 13.94 46.10 9.83 46.04 4.99 Z" />
<path fill="#ffffff" opacity="1.00" d=" M 22.88 24.45 C 27.85 17.41 34.46 11.57 41.94 7.31 C 42.88 12.76 47.29 17.09 52.71 18.06 C 48.31 25.44 42.64 32.18 35.51 37.06 C 34.65 40.51 34.13 44.03 33.49 47.53 C 29.62 51.78 25.11 55.51 21.56 60.00 L 21.29 60.00 C 20.82 56.39 20.70 52.76 20.72 49.13 C 23.24 46.56 25.97 44.20 28.24 41.39 C 25.28 42.65 22.27 43.88 19.05 44.29 C 17.97 43.11 16.84 41.98 15.67 40.90 C 16.07 37.78 17.10 34.79 18.51 31.99 C 15.63 34.03 13.40 36.82 10.89 39.27 C 7.25 39.42 3.64 38.66 0.00 38.87 L 0.00 38.68 C 4.25 34.89 8.02 30.57 12.26 26.76 C 15.69 25.54 19.41 25.56 22.88 24.45 Z" />
</g>
</svg>
