<?xml version="1.0" encoding="UTF-8" ?>
<!DOCTYPE svg PUBLIC "-//W3C//DTD SVG 1.1//EN" "http://www.w3.org/Graphics/SVG/1.1/DTD/svg11.dtd">
<svg width="57pt" height="61pt" viewBox="0 0 57 61" version="1.1" xmlns="http://www.w3.org/2000/svg">
<g id="#ffffffff">
<path fill="#ffffff" opacity="1.00" d=" M 24.93 0.00 L 32.01 0.00 C 36.35 0.20 40.21 3.80 40.47 8.17 C 40.65 12.40 40.66 16.65 40.48 20.88 C 40.85 23.11 36.96 23.69 36.63 21.56 C 36.08 17.06 36.80 12.51 36.30 8.00 C 35.98 5.51 33.47 4.03 31.10 4.23 C 27.46 4.20 22.37 3.45 20.44 7.44 C 19.60 11.24 20.33 15.19 20.07 19.05 C 20.31 21.15 19.42 23.71 16.80 22.83 C 14.94 18.85 16.14 14.21 15.87 9.95 C 15.56 4.79 20.02 0.58 24.93 0.00 Z" />
<path fill="#ffffff" opacity="1.00" d=" M 0.00 15.35 C 4.05 13.82 8.50 14.84 12.72 14.54 C 12.91 17.55 12.14 20.84 13.64 23.61 C 15.40 26.78 20.73 26.71 22.39 23.47 C 23.65 20.68 23.04 17.51 23.19 14.54 C 26.57 14.56 29.96 14.56 33.34 14.52 C 33.50 17.34 32.90 20.32 33.85 23.03 C 35.39 26.87 41.58 26.89 43.13 23.06 C 44.12 20.35 43.49 17.34 43.66 14.51 C 47.52 14.63 51.39 14.39 55.24 14.66 C 55.58 14.96 56.28 15.56 56.62 15.85 C 55.93 28.32 54.06 40.71 53.13 53.16 C 53.03 56.71 50.93 60.31 47.22 61.00 L 9.64 61.00 C 6.29 60.54 3.61 57.53 3.51 54.16 C 2.34 42.57 1.15 30.99 0.00 19.41 L 0.00 15.35 Z" />
</g>
</svg>
