<?xml version="1.0" encoding="UTF-8" ?>
<!DOCTYPE svg PUBLIC "-//W3C//DTD SVG 1.1//EN" "http://www.w3.org/Graphics/SVG/1.1/DTD/svg11.dtd">
<svg width="60pt" height="60pt" viewBox="0 0 60 60" version="1.1" xmlns="http://www.w3.org/2000/svg">
<g id="#ffffffff">
<path fill="#ffffff" opacity="1.00" d=" M 9.16 9.02 C 8.33 3.73 13.94 -0.76 18.96 0.30 C 24.13 1.14 27.67 5.48 29.98 9.86 C 32.38 5.19 36.36 0.55 41.96 0.20 C 46.35 -0.29 51.02 3.40 50.63 8.00 C 50.34 11.99 46.84 14.60 43.68 16.47 C 48.15 16.49 52.64 16.35 57.11 16.50 C 58.50 16.53 59.46 17.22 60.00 18.56 L 60.00 30.22 C 50.57 30.24 41.15 30.22 31.72 30.23 C 31.70 25.64 31.71 21.04 31.71 16.45 C 30.57 16.45 29.42 16.45 28.28 16.45 C 28.28 21.04 28.29 25.63 28.27 30.23 C 18.85 30.22 9.42 30.24 0.00 30.22 L 0.00 18.76 C 0.28 18.29 0.84 17.36 1.12 16.89 C 5.59 15.92 10.28 16.66 14.83 16.51 C 12.31 14.66 9.09 12.53 9.16 9.02 M 13.86 10.24 C 17.22 14.11 22.77 14.64 27.53 15.36 C 26.01 10.81 23.29 5.48 18.15 4.46 C 15.08 3.61 11.71 7.55 13.86 10.24 M 40.03 4.94 C 35.97 7.04 33.46 11.36 32.47 15.70 C 36.92 14.52 41.87 13.55 45.21 10.10 C 46.10 9.07 47.19 7.30 45.92 6.10 C 44.83 4.00 41.92 4.13 40.03 4.94 Z" />
<path fill="#ffffff" opacity="1.00" d=" M 5.34 34.33 C 12.99 34.34 20.64 34.33 28.29 34.34 C 28.25 42.89 28.32 51.45 28.25 60.00 L 5.47 60.00 C 5.22 51.45 5.44 42.89 5.34 34.33 Z" />
<path fill="#ffffff" opacity="1.00" d=" M 31.69 34.34 C 39.34 34.33 46.99 34.34 54.64 34.33 C 54.56 42.89 54.73 51.44 54.54 60.00 L 31.75 60.00 C 31.64 51.45 31.75 42.89 31.69 34.34 Z" />
</g>
</svg>
