<?xml version="1.0" encoding="UTF-8" ?>
<!DOCTYPE svg PUBLIC "-//W3C//DTD SVG 1.1//EN" "http://www.w3.org/Graphics/SVG/1.1/DTD/svg11.dtd">
<svg width="58pt" height="40pt" viewBox="0 0 58 40" version="1.1" xmlns="http://www.w3.org/2000/svg">
<g id="#ffffffff">
<path fill="#ffffff" opacity="1.00" d=" M 4.03 0.00 L 53.86 0.00 C 53.00 2.24 51.01 3.67 49.40 5.33 C 43.18 11.55 36.98 17.79 30.75 23.99 C 29.86 25.10 27.91 24.93 27.04 23.89 C 20.87 17.74 14.73 11.55 8.56 5.39 C 6.91 3.72 4.97 2.23 4.03 0.00 Z" />
<path fill="#ffffff" opacity="1.00" d=" M 56.53 4.55 C 56.73 4.51 57.14 4.43 57.35 4.38 C 57.06 14.95 57.41 25.52 57.16 36.09 C 55.46 35.58 54.43 34.08 53.22 32.90 C 49.22 28.85 45.20 24.83 41.19 20.80 C 41.27 20.45 41.42 19.74 41.49 19.38 C 46.59 14.53 51.41 9.38 56.53 4.55 Z" />
<path fill="#ffffff" opacity="1.00" d=" M 0.78 4.02 C 6.22 8.94 11.19 14.38 16.51 19.44 C 16.57 19.76 16.70 20.41 16.76 20.73 C 11.86 25.71 6.87 30.63 1.95 35.61 L 0.64 35.83 C 0.85 25.23 0.60 14.62 0.78 4.02 Z" />
<path fill="#ffffff" opacity="1.00" d=" M 3.98 40.00 C 8.87 33.98 15.05 29.12 20.13 23.26 C 22.84 25.68 25.19 28.85 29.03 29.45 C 32.87 28.88 34.95 25.48 37.88 23.37 C 42.97 29.19 48.96 34.16 54.02 40.00 L 3.98 40.00 Z" />
</g>
</svg>
