<?xml version="1.0" encoding="UTF-8" ?>
<!DOCTYPE svg PUBLIC "-//W3C//DTD SVG 1.1//EN" "http://www.w3.org/Graphics/SVG/1.1/DTD/svg11.dtd">
<svg width="84pt" height="84pt" viewBox="0 0 84 84" version="1.1" xmlns="http://www.w3.org/2000/svg">
<g id="#192a3bff">
<path fill="#192a3b" opacity="1.00" d=" M 39.60 0.00 L 44.30 0.00 C 54.76 0.66 64.95 5.20 72.18 12.83 C 79.21 19.95 83.31 29.66 84.00 39.60 L 84.00 44.26 C 83.34 54.74 78.80 64.95 71.15 72.19 C 64.03 79.21 54.32 83.31 44.39 84.00 L 39.73 84.00 C 29.27 83.33 19.09 78.82 11.85 71.21 C 4.81 64.08 0.68 54.36 0.00 44.40 L 0.00 39.07 C 0.80 30.50 3.91 22.10 9.45 15.46 C 16.78 6.38 27.97 0.72 39.60 0.00 M 38.24 4.42 C 24.43 5.61 11.86 15.21 6.87 28.10 C 4.29 34.37 3.75 41.33 4.69 48.01 C 6.67 60.92 15.92 72.39 28.10 77.11 C 34.34 79.68 41.29 80.24 47.95 79.30 C 59.37 77.55 69.70 70.16 75.18 60.01 C 80.28 50.79 81.13 39.39 77.63 29.48 C 72.24 13.41 55.11 2.40 38.24 4.42 Z" />
<path fill="#192a3b" opacity="1.00" d=" M 28.48 21.46 C 29.82 19.91 32.11 20.28 33.32 21.80 C 35.32 24.15 37.36 26.82 37.86 29.95 C 38.67 34.49 31.02 35.00 32.46 39.64 C 33.82 43.48 36.63 46.66 39.57 49.41 C 41.19 50.69 42.88 52.34 45.07 52.45 C 48.39 51.69 50.02 46.61 53.95 48.07 C 57.24 49.85 60.90 52.33 62.17 56.01 C 59.62 61.49 52.88 64.61 46.98 63.23 C 40.19 61.66 34.83 56.74 30.36 51.66 C 25.68 46.22 21.31 39.47 22.14 31.97 C 22.28 27.63 25.02 23.87 28.48 21.46 Z" />
</g>
</svg>
