<?xml version="1.0" encoding="UTF-8" ?>
<!DOCTYPE svg PUBLIC "-//W3C//DTD SVG 1.1//EN" "http://www.w3.org/Graphics/SVG/1.1/DTD/svg11.dtd">
<svg width="67pt" height="67pt" viewBox="0 0 67 67" version="1.1" xmlns="http://www.w3.org/2000/svg">
<g id="#ffffffff">
<path fill="#ffffff" opacity="1.00" d=" M 7.48 0.00 L 59.31 0.00 C 63.26 0.28 66.58 3.59 67.00 7.51 L 67.00 42.71 C 66.59 47.08 62.33 50.60 57.98 50.27 C 51.22 50.25 44.46 50.28 37.71 50.25 C 37.54 55.83 37.93 61.43 37.47 67.00 L 37.08 67.00 C 32.50 60.96 26.48 56.11 21.31 50.56 C 17.33 49.85 13.10 50.46 9.03 50.28 C 4.78 50.62 0.72 47.30 0.00 43.14 L 0.00 7.64 C 0.29 3.72 3.58 0.41 7.48 0.00 M 4.24 8.00 C 4.19 19.34 4.21 30.68 4.23 42.02 C 4.07 44.47 6.64 46.27 8.91 46.13 C 13.58 46.18 18.26 46.02 22.92 46.21 C 26.40 49.66 29.88 53.55 33.44 56.65 C 33.61 53.14 33.40 49.62 33.53 46.11 C 41.70 46.14 49.87 46.11 58.04 46.13 C 60.31 46.29 62.87 44.50 62.77 42.06 C 62.79 30.71 62.81 19.36 62.76 8.01 C 62.77 6.06 60.88 4.19 58.93 4.24 C 42.27 4.18 25.62 4.24 8.96 4.21 C 6.71 3.85 4.25 5.66 4.24 8.00 Z" />
<path fill="#ffffff" opacity="1.00" d=" M 12.55 12.58 C 26.52 12.55 40.48 12.55 54.45 12.58 C 54.46 13.59 54.49 15.60 54.51 16.61 C 40.51 16.80 26.47 16.86 12.48 16.58 C 12.50 15.58 12.53 13.58 12.55 12.58 Z" />
<path fill="#ffffff" opacity="1.00" d=" M 12.59 20.88 C 26.53 20.87 40.47 20.87 54.41 20.88 C 54.44 22.30 54.45 23.73 54.43 25.16 C 40.48 25.17 26.53 25.16 12.57 25.17 C 12.55 23.74 12.56 22.31 12.59 20.88 Z" />
<path fill="#ffffff" opacity="1.00" d=" M 12.49 29.44 C 20.89 29.19 29.30 29.35 37.71 29.36 C 37.74 30.75 37.71 32.14 37.64 33.52 C 29.27 33.46 20.91 33.54 12.55 33.48 C 12.53 32.47 12.50 30.45 12.49 29.44 Z" />
</g>
</svg>
