<?xml version="1.0" encoding="UTF-8" ?>
<!DOCTYPE svg PUBLIC "-//W3C//DTD SVG 1.1//EN" "http://www.w3.org/Graphics/SVG/1.1/DTD/svg11.dtd">
<svg width="86pt" height="86pt" viewBox="0 0 86 86" version="1.1" xmlns="http://www.w3.org/2000/svg">
<g id="#192a3bff">
<path fill="#192a3b" opacity="1.00" d=" M 8.45 18.39 C 16.03 7.60 28.89 0.74 42.09 0.59 C 55.67 0.16 69.17 6.86 77.14 17.84 C 83.33 26.12 86.24 36.72 85.23 47.01 C 84.94 49.35 84.87 51.85 83.59 53.91 C 82.13 51.19 81.22 48.17 79.45 45.62 C 77.80 43.89 75.96 42.35 74.26 40.67 C 76.27 40.49 78.30 40.43 80.33 40.36 C 79.69 35.14 78.27 30.05 75.87 25.37 C 70.38 25.36 64.90 25.32 59.41 25.39 C 60.52 28.96 61.27 32.62 61.67 36.33 C 60.00 36.42 58.34 36.53 56.67 36.64 C 56.05 32.83 55.19 29.05 54.01 25.36 C 51.17 25.35 48.34 25.35 45.50 25.38 C 45.65 30.66 45.31 35.94 45.78 41.20 C 44.26 42.67 42.76 44.17 41.32 45.73 C 37.26 45.49 33.19 45.52 29.13 45.56 C 29.34 50.68 30.36 55.72 31.96 60.58 C 33.39 60.63 34.81 60.69 36.23 60.76 C 36.65 62.88 37.53 66.10 34.20 66.11 C 35.86 69.24 37.63 72.33 39.75 75.18 C 41.78 74.78 42.84 76.67 44.16 77.81 C 46.80 80.51 50.35 81.97 53.75 83.46 C 52.55 84.74 50.68 84.67 49.09 84.99 C 38.90 86.47 28.19 84.14 19.63 78.39 C 9.64 71.87 2.64 60.93 1.02 49.11 C -0.57 38.41 2.10 27.15 8.45 18.39 M 13.58 20.20 C 18.49 20.23 23.41 20.18 28.32 20.23 C 30.60 15.26 33.39 10.54 36.72 6.20 C 27.68 7.90 19.13 12.79 13.58 20.20 M 49.26 6.21 C 52.60 10.54 55.38 15.26 57.67 20.23 C 62.58 20.18 67.48 20.23 72.39 20.20 C 66.84 12.80 58.31 7.88 49.26 6.21 M 34.08 20.20 C 36.19 20.21 38.31 20.21 40.42 20.21 C 40.48 16.77 40.48 13.32 40.38 9.88 C 37.97 13.12 35.87 16.58 34.08 20.20 M 45.62 9.88 C 45.52 13.33 45.52 16.77 45.58 20.21 C 47.69 20.21 49.80 20.21 51.91 20.20 C 50.11 16.59 48.02 13.13 45.62 9.88 M 10.13 25.36 C 7.69 30.05 6.28 35.18 5.65 40.42 C 11.77 40.46 17.88 40.47 24.00 40.41 C 24.26 35.32 25.00 30.26 26.57 25.40 C 21.09 25.32 15.61 25.37 10.13 25.36 M 31.97 25.36 C 30.38 30.24 29.33 35.30 29.13 40.44 C 32.90 40.45 36.68 40.45 40.46 40.46 C 40.45 35.43 40.42 30.41 40.49 25.38 C 37.65 25.35 34.81 25.35 31.97 25.36 M 5.65 45.58 C 6.29 50.82 7.69 55.95 10.14 60.63 C 15.62 60.62 21.09 60.67 26.57 60.60 C 25.00 55.74 24.27 50.67 23.99 45.59 C 17.88 45.53 11.77 45.54 5.65 45.58 M 13.58 65.79 C 19.15 73.19 27.68 78.08 36.73 79.79 C 33.39 75.45 30.60 70.73 28.32 65.76 C 23.41 65.81 18.50 65.76 13.58 65.79 Z" />
<path fill="#192a3b" opacity="1.00" d=" M 46.26 46.23 C 52.27 39.97 62.55 38.59 70.04 42.92 C 76.70 46.66 80.80 54.45 80.15 62.05 C 79.90 65.85 78.09 69.27 76.13 72.44 C 79.42 75.83 82.96 78.98 86.00 82.61 L 86.00 84.35 C 84.63 84.09 84.05 84.64 84.28 86.00 L 82.85 86.00 C 78.98 83.14 75.90 79.41 72.41 76.14 C 69.79 77.69 67.11 79.33 64.06 79.85 C 55.16 81.70 45.47 76.46 41.95 68.11 C 38.84 60.82 40.51 51.75 46.26 46.23 M 55.35 46.42 C 49.09 48.62 44.75 55.35 45.62 61.97 C 46.39 69.03 52.82 75.05 60.00 74.91 C 68.40 75.44 75.95 67.32 74.87 58.97 C 74.45 49.77 63.92 42.90 55.35 46.42 Z" />
</g>
</svg>
