<?xml version="1.0" encoding="UTF-8" ?>
<!DOCTYPE svg PUBLIC "-//W3C//DTD SVG 1.1//EN" "http://www.w3.org/Graphics/SVG/1.1/DTD/svg11.dtd">
<svg width="65pt" height="55pt" viewBox="0 0 65 55" version="1.1" xmlns="http://www.w3.org/2000/svg">
<g id="#c7c7c7c7">
<path fill="#c7c7c7" opacity="0.78" d=" M 15.56 0.00 L 17.17 0.00 C 18.55 4.24 19.89 8.50 20.97 12.82 C 20.70 13.05 20.18 13.51 19.92 13.74 C 17.97 9.33 17.11 4.55 15.56 0.00 Z" />
<path fill="#c7c7c7" opacity="0.78" d=" M 46.01 0.00 L 48.38 0.00 C 47.30 4.44 45.86 8.77 44.69 13.18 C 44.08 13.17 43.47 13.17 42.86 13.16 C 44.31 8.81 45.48 4.37 46.89 0.01 L 46.01 0.00 Z" />
<path fill="#c7c7c7" opacity="0.78" d=" M 2.88 1.87 C 6.04 4.09 8.13 7.42 10.84 10.12 C 12.05 11.59 14.01 12.90 13.73 15.06 C 9.59 11.86 6.61 7.44 3.06 3.65 C 3.02 3.20 2.93 2.31 2.88 1.87 Z" />
<path fill="#c7c7c7" opacity="0.78" d=" M 54.25 9.01 C 56.57 6.61 58.49 3.79 61.23 1.83 C 61.36 4.37 58.94 5.72 57.62 7.56 C 55.17 10.05 53.33 13.35 50.09 14.93 C 50.55 12.42 52.70 10.85 54.25 9.01 Z" />
<path fill="#c7c7c7" opacity="0.78" d=" M 25.68 19.66 C 28.37 16.09 29.73 11.70 32.00 7.86 C 34.26 11.70 35.62 16.08 38.30 19.65 C 42.51 20.53 46.80 20.95 51.03 21.71 C 48.12 24.99 44.62 27.72 41.85 31.12 C 41.96 34.13 42.77 37.06 43.06 40.05 C 44.58 39.46 46.13 38.93 47.70 38.47 C 49.07 35.89 50.40 33.30 51.83 30.75 C 53.12 33.27 54.14 35.96 55.77 38.29 C 58.45 39.36 61.52 39.21 64.25 40.26 C 62.33 42.43 60.20 44.41 58.16 46.47 C 58.83 49.29 59.19 52.16 59.71 55.00 L 59.16 55.00 C 56.68 53.72 54.23 52.38 51.80 51.01 C 49.40 52.26 46.99 53.50 44.62 54.80 L 45.95 55.00 L 44.03 55.00 C 44.20 51.36 44.98 47.78 45.13 44.14 C 45.75 44.75 46.37 45.36 46.99 45.97 C 46.53 48.06 46.13 50.16 45.80 52.27 C 47.82 51.30 49.82 50.29 51.84 49.30 C 53.77 50.34 55.70 51.38 57.64 52.42 C 57.28 50.28 56.83 48.16 56.75 45.99 C 57.93 44.10 59.72 42.71 61.27 41.14 C 59.17 40.80 57.04 40.61 55.01 39.94 C 53.53 38.20 52.70 36.02 51.59 34.05 C 50.72 35.99 49.81 37.92 48.86 39.83 C 46.41 40.30 43.21 40.76 43.16 43.98 C 39.45 41.98 35.69 40.07 32.00 38.02 C 28.10 40.16 24.19 42.28 20.16 44.15 C 20.32 43.36 20.63 41.76 20.78 40.97 C 18.98 40.69 17.20 40.32 15.43 39.90 C 14.46 37.93 13.49 35.97 12.55 33.98 C 11.58 35.99 10.57 37.97 9.57 39.96 C 7.36 40.41 5.13 40.79 2.90 41.14 C 4.54 42.73 6.16 44.32 7.76 45.96 C 7.32 48.06 6.95 50.19 6.58 52.31 C 8.51 51.36 10.37 50.25 12.39 49.52 C 14.55 50.06 16.43 51.36 18.41 52.32 C 18.27 49.66 16.36 46.25 18.96 44.26 C 19.30 47.87 19.84 51.45 20.58 55.00 L 20.05 55.00 C 17.57 53.77 15.22 52.27 12.66 51.23 C 9.98 52.08 7.64 53.73 5.15 55.00 L 4.54 55.00 C 5.03 52.10 5.49 49.21 6.04 46.32 C 3.99 44.35 1.92 42.40 0.00 40.30 L 0.00 39.83 C 2.81 39.48 5.68 39.25 8.40 38.43 C 9.97 36.02 11.14 33.36 12.60 30.88 C 14.70 33.73 15.04 39.23 19.54 39.07 C 20.01 39.61 20.47 40.14 20.93 40.69 C 21.09 37.47 22.01 34.35 22.14 31.13 C 19.36 27.73 15.90 24.95 12.90 21.75 C 17.14 20.95 21.45 20.52 25.68 19.66 M 26.86 21.00 C 23.38 22.12 19.64 22.00 16.08 22.78 C 18.67 25.57 21.87 27.85 24.05 30.99 C 23.35 34.50 22.81 38.03 22.02 41.53 C 25.41 39.97 28.54 37.87 31.99 36.48 C 35.45 37.87 38.57 39.97 41.96 41.52 C 41.19 38.03 40.65 34.49 39.94 30.99 C 42.12 27.85 45.32 25.57 47.92 22.78 C 44.36 22.01 40.62 22.12 37.13 20.99 C 34.92 18.06 33.95 14.41 31.99 11.32 C 30.06 14.43 29.07 18.06 26.86 21.00 Z" />
<path fill="#c7c7c7" opacity="0.78" d=" M 0.00 15.44 C 4.20 16.30 8.63 17.44 12.02 20.17 C 7.75 20.42 3.95 17.75 0.00 16.46 L 0.00 15.44 Z" />
<path fill="#c7c7c7" opacity="0.78" d=" M 52.63 19.18 C 56.38 17.82 60.05 16.19 63.94 15.22 C 63.71 15.64 63.26 16.49 63.04 16.92 C 59.82 18.35 56.45 19.39 53.16 20.64 C 53.03 20.27 52.76 19.55 52.63 19.18 Z" />
</g>
</svg>
